<?xml version="1.0" encoding="UTF-8"?>
<svg viewBox="0 0 106 24" version="1.1" xmlns="http://www.w3.org/2000/svg" xmlns:xlink="http://www.w3.org/1999/xlink">
    <!-- Generator: Sketch 64 (93537) - https://sketch.com -->
    <title>Cresh Logo</title>
    <desc>Created with Sketch.</desc>
    <defs>
        <linearGradient x1="50%" y1="834.11029%" x2="50%" y2="-407.447413%" id="linearGradient-1">
            <stop stop-color="#400EC9" offset="11%"></stop>
            <stop stop-color="#32A9EA" offset="43%"></stop>
            <stop stop-color="#00ECCB" offset="66%"></stop>
        </linearGradient>
        <linearGradient x1="50%" y1="526.109215%" x2="50%" y2="-716.154721%" id="linearGradient-2">
            <stop stop-color="#400EC9" offset="0%"></stop>
            <stop stop-color="#32A9EA" offset="43%"></stop>
            <stop stop-color="#00ECCB" offset="100%"></stop>
        </linearGradient>
        <linearGradient x1="50%" y1="217.690557%" x2="50%" y2="-1024.57338%" id="linearGradient-3">
            <stop stop-color="#400EC9" offset="0%"></stop>
            <stop stop-color="#32A9EA" offset="43%"></stop>
            <stop stop-color="#00ECCB" offset="100%"></stop>
        </linearGradient>
    </defs>
    <g id="Symbols" stroke="none" stroke-width="1" fill="none" fill-rule="evenodd">
        <g id="Navigation/Sidebar" transform="translate(-73.000000, -38.000000)">
            <g id="Sidebar" transform="translate(-1.000000, 0.000000)">
                <g id="Logo/Cresh/Inline" transform="translate(74.000000, 38.000000)">
                    <g id="Logo">
                        <path d="M61.6492184,3.62203059 L50.5860757,3.62203059 C49.6969072,3.5977866 48.9915966,3.00799268 48.9915966,2.28869726 C48.9915966,1.56940184 49.6969072,0.979607927 50.5860757,0.955363928 L61.6492184,0.955363928 C62.5383869,0.979607927 63.2436975,1.56940184 63.2436975,2.28869726 C63.2436975,3.00799268 62.5383869,3.5977866 61.6492184,3.62203059 Z" id="Path" fill="url(#linearGradient-1)" fill-rule="nonzero"></path>
                        <path d="M61.6078139,13.3998084 L50.6274802,13.3998084 C49.7240067,13.3998084 48.9915966,12.8028547 48.9915966,12.066475 C48.9915966,11.3300954 49.7240067,10.7331417 50.6274802,10.7331417 L61.6078139,10.7331417 C62.5112874,10.7331417 63.2436975,11.3300954 63.2436975,12.066475 C63.2436975,12.8028547 62.5112874,13.3998084 61.6078139,13.3998084 Z" id="Path" fill="url(#linearGradient-2)" fill-rule="nonzero"></path>
                        <path d="M61.6078139,23.1775861 L50.6274802,23.1775861 C49.7240067,23.1775861 48.9915966,22.5806325 48.9915966,21.8442528 C48.9915966,21.1078732 49.7240067,20.5109195 50.6274802,20.5109195 L61.6078139,20.5109195 C62.5112874,20.5109195 63.2436975,21.1078732 63.2436975,21.8442528 C63.2436975,22.5806325 62.5112874,23.1775861 61.6078139,23.1775861 Z" id="Path" fill="url(#linearGradient-3)" fill-rule="nonzero"></path>
                        <path d="M41.6728772,23.6511279 C41.1869384,23.6516793 40.7260459,23.4371192 40.4157544,23.0658597 L33.951614,15.3600135 C33.3738952,14.6712719 33.4679782,13.6480015 34.1617544,13.0744751 C34.8555306,12.5009486 35.8862811,12.5943489 36.464,13.2830904 L42.9281404,20.9889366 C43.3328239,21.4730074 43.419639,22.1455009 43.150996,22.7152374 C42.8823529,23.2849738 42.3065405,23.6495425 41.6728772,23.6511279 L41.6728772,23.6511279 Z" id="Path" fill="#400EC9" fill-rule="nonzero"></path>
                        <path d="M75.1298246,23.6270904 C70.8247368,23.6270904 67.3192982,20.621552 67.3192982,16.925552 C67.3192982,16.0283212 68.1654386,15.3027827 69.2105614,15.3027827 C70.2556842,15.3027827 70.7224561,16.0283212 70.7224561,16.925552 C70.7224561,18.8307827 72.9075439,20.381552 75.1279649,20.381552 C76.1730877,20.381552 77.0192281,21.1070904 77.0192281,22.0043212 C77.0192281,22.901552 76.1749474,23.6270904 75.1298246,23.6270904 Z" id="Path" fill="#400EC9" fill-rule="nonzero"></path>
                        <path d="M81.0435088,8.35385965 C80.0002456,8.35385965 79.5353333,7.66339812 79.5353333,6.7680135 C79.5353333,4.86278273 77.3502456,3.3120135 75.1298246,3.3120135 C74.0847018,3.3120135 73.2385614,2.58647504 73.2385614,1.68924427 C73.2385614,0.7920135 74.0847018,0.0664750388 75.1298246,0.0664750388 C79.4349123,0.0664750388 82.9403509,3.0720135 82.9403509,6.7680135 C82.9403509,7.66339812 82.5572632,8.35385965 81.0435088,8.35385965 Z" id="Path" fill="#400EC9" fill-rule="nonzero"></path>
                        <path d="M19.1004561,6.2880135 C18.6668853,6.28870327 18.2510503,6.11719463 17.945614,5.81170581 C16.336801,4.20594173 14.1477702,3.30583813 11.8664211,3.3120135 C10.963639,3.31201348 10.2317895,2.58547495 10.2317895,1.68924427 C10.2317895,0.793013584 10.963639,0.0664334143 11.8664211,0.0664334143 C15.0152463,0.0581443555 18.0365938,1.30059106 20.2571579,3.51693658 C20.7221459,3.98189524 20.8602913,4.67863276 20.6074924,5.28385224 C20.3546935,5.88907172 19.7604327,6.28430878 19.1004561,6.28616735 L19.1004561,6.2880135 Z" id="Path" fill="#400EC9" fill-rule="nonzero"></path>
                        <path d="M1.63463158,13.469552 C0.732274323,13.4685346 0.00102482468,12.7425917 0,11.8467827 C0.00717432948,5.34365087 5.31575168,0.073597305 11.8664211,0.0664750388 C12.7692031,0.0664750388 13.5010526,0.793013571 13.5010526,1.68924427 C13.5010526,2.58547497 12.7692031,3.3120135 11.8664211,3.3120135 C7.12046619,3.31710098 3.27438783,7.13526876 3.26926316,11.8467827 C3.26926316,12.7430134 2.53741367,13.469552 1.63463158,13.469552 Z" id="Path" fill="#400EC9" fill-rule="nonzero"></path>
                        <path d="M11.8664211,23.6270904 C5.31575168,23.6199682 0.00717432948,18.3499146 0,11.8467827 C0,10.950552 0.731849486,10.2240135 1.63463158,10.2240135 C2.53741367,10.2240135 3.26926316,10.950552 3.26926316,11.8467827 C3.27848415,16.5554126 7.12336519,20.3690891 11.8664211,20.3741673 C12.7692031,20.3741673 13.5010526,21.1007059 13.5010526,21.9969366 C13.5010526,22.8931673 12.7692031,23.6197058 11.8664211,23.6197058 L11.8664211,23.6270904 Z" id="Path" fill="#400EC9" fill-rule="nonzero"></path>
                        <path d="M12.0114737,23.6086289 C11.1289951,23.5856771 10.4239016,22.8720085 10.4178793,21.9956537 C10.4118571,21.1192989 11.1070768,20.3961466 11.9891579,20.3612443 C14.4409193,20.3282122 16.7620315,19.2583494 18.369614,17.4203212 C18.7469309,16.965571 19.34288,16.7495618 19.9265833,16.8559782 C20.5102867,16.9623946 20.990039,17.3745176 21.1799786,17.9326858 C21.3699181,18.4908539 21.2402034,19.1073738 20.8410877,19.5433981 C18.6254685,22.0856763 15.4215901,23.5675065 12.0356491,23.6160135 L12.0114737,23.6086289 Z" id="Path" fill="#400EC9" fill-rule="nonzero"></path>
                        <path d="M28.6218596,23.9206577 C27.7190776,23.9206577 26.9872281,23.1940904 26.9872281,22.2978597 L26.9872281,1.75016735 C26.9872281,0.853936686 27.7190776,0.127398212 28.6218596,0.127398212 C29.5246417,0.127398212 30.2565203,0.853936686 30.2565203,1.75016735 L30.2565203,22.2978597 C30.2569855,22.728395 30.0849245,23.1414379 29.7782645,23.4458726 C29.4716044,23.7503072 29.0555422,23.9211195 28.6218596,23.9206577 Z" id="Path" fill="#400EC9" fill-rule="nonzero"></path>
                        <path d="M91.4277895,23.9206614 C90.5250074,23.9206614 89.7931579,23.1940904 89.7931579,22.2978597 L89.7931579,1.75016735 C89.7931579,0.853936648 90.5250074,0.127398116 91.4277895,0.127398116 C92.3305716,0.127398116 93.0624211,0.853936648 93.0624211,1.75016735 L93.0624211,22.2978597 C93.0629153,22.728395 92.8908544,23.1414379 92.5841943,23.4458726 C92.2775342,23.7503072 91.861472,23.9211195 91.4277895,23.9206614 L91.4277895,23.9206614 Z" id="Path" fill="#400EC9" fill-rule="nonzero"></path>
                        <path d="M104.181263,13.6467827 L91.4594035,13.6467827 C90.5566214,13.6467827 89.8247719,12.9202442 89.8247719,12.0240135 C89.8247719,11.1277828 90.5566214,10.4012443 91.4594035,10.4012443 L104.181263,10.4012443 C105.084045,10.4012443 105.815895,11.1277828 105.815895,12.0240135 C105.815895,12.9202442 105.084045,13.6467827 104.181263,13.6467827 Z" id="Path" fill="#400EC9" fill-rule="nonzero"></path>
                        <path d="M34.8870175,3.37293658 L28.6218596,3.37293658 C27.7190776,3.37293658 26.9872281,2.64639805 26.9872281,1.75016735 C26.9872281,0.853936648 27.7190776,0.127398116 28.6218596,0.127398116 L34.8870175,0.127398116 C35.7897996,0.127398116 36.5216491,0.853936648 36.5216491,1.75016735 C36.5216491,2.64639805 35.7897996,3.37293658 34.8870175,3.37293658 Z" id="Path" fill="#400EC9" fill-rule="nonzero"></path>
                        <path d="M35.1585263,15.9433981 C34.2557442,15.9433981 33.5238947,15.2168596 33.5238947,14.3206289 C33.5238947,13.4243982 34.2557442,12.6978597 35.1585263,12.6978597 C38.6807018,12.6997058 39.9266667,10.266475 39.9266667,8.18955196 C39.9266667,5.87078273 38.3496842,3.37847504 34.8870175,3.37847504 C34.3030199,3.37847505 33.7633839,3.06917698 33.4713851,2.56709043 C33.1793862,2.06500388 33.1793862,1.44640774 33.4713851,0.944321186 C33.7633839,0.442234635 34.3030199,0.132936577 34.8870175,0.132936577 C38.0725965,0.132936577 40.0177895,1.51755196 41.0889474,2.67878273 C42.4615209,4.18902492 43.2133927,6.15553013 43.1959298,8.18955196 C43.1959298,13.2793981 39.1530526,15.9433981 35.1585263,15.9433981 Z" id="Path" fill="#400EC9" fill-rule="nonzero"></path>
                        <path d="M69.2124211,8.39078273 C68.1672982,8.39078273 67.3211579,7.66339812 67.3211579,6.7680135 C67.3211579,3.07570581 70.8247368,0.0664750388 75.1316842,0.0664750388 C76.176807,0.0664750388 77.0229474,0.793859654 77.0229474,1.68924427 C77.0229474,2.58462888 76.176807,3.3120135 75.1316842,3.3120135 C72.9112632,3.3120135 70.7261754,4.86278273 70.7261754,6.7680135 C70.7243158,7.66339812 70.2575439,8.39078273 69.2124211,8.39078273 Z" id="Path" fill="#400EC9" fill-rule="nonzero"></path>
                        <path d="M75.1298246,23.6270904 C74.0847018,23.6270904 73.2385614,22.8997058 73.2385614,22.0043212 C73.2385614,21.1089366 74.0847018,20.3741673 75.1298246,20.3741673 C77.3502456,20.3741673 79.5353333,18.8233981 79.5353333,16.9181673 C79.5353333,16.0209366 80.0039649,15.2953981 81.0472281,15.2953981 C82.0904912,15.2953981 82.9403509,16.0283212 82.9403509,16.925552 C82.9403509,20.621552 79.4349123,23.6270904 75.1298246,23.6270904 Z" id="Path" fill="#400EC9" fill-rule="nonzero"></path>
                        <path d="M75.1298246,13.469552 C70.8247368,13.469552 67.3192982,10.4640135 67.3192982,6.7680135 C67.3192982,5.87262888 68.1654386,5.14524427 69.2105614,5.14524427 C70.2556842,5.14524427 70.7224561,5.87262888 70.7224561,6.7680135 C70.7243158,8.67324427 72.9094035,10.2203212 75.1298246,10.2203212 C76.1749474,10.2203212 77.0210877,10.9458597 77.0210877,11.8430904 C77.0210877,12.7403212 76.1749474,13.469552 75.1298246,13.469552 Z" id="Path" fill="#400EC9" fill-rule="nonzero"></path>
                        <path d="M81.0472281,18.5483212 C80.0039649,18.5483212 79.5353333,17.8209366 79.5353333,16.925552 C79.5353333,15.0203212 77.3502456,13.469552 75.1298246,13.469552 C74.0847018,13.469552 73.2385614,12.7421673 73.2385614,11.8467827 C73.2385614,10.9513981 74.0847018,10.2203212 75.1298246,10.2203212 C79.4349123,10.2203212 82.9403509,13.2258597 82.9403509,16.9218597 C82.9403509,17.8209366 82.0923509,18.5483212 81.0472281,18.5483212 Z" id="Path" fill="#400EC9" fill-rule="nonzero"></path>
                        <path d="M104.181263,23.9206614 C103.747581,23.9211195 103.331518,23.7503072 103.024858,23.4458726 C102.718198,23.1414379 102.546137,22.728395 102.546632,22.2978597 L102.546632,1.75016735 C102.546632,0.853936648 103.278481,0.127398116 104.181263,0.127398116 C105.084045,0.127398116 105.815895,0.853936648 105.815895,1.75016735 L105.815895,22.2978597 C105.815895,22.7282448 105.643675,23.1410025 105.337122,23.4453308 C105.030569,23.749659 104.614794,23.9206614 104.181263,23.9206614 Z" id="Path" fill="#400EC9" fill-rule="nonzero"></path>
                    </g>
                </g>
            </g>
        </g>
    </g>
</svg>
